<?xml version="1.0" encoding="utf-8"?>
<!-- Generator: Adobe Illustrator 23.0.3, SVG Export Plug-In . SVG Version: 6.00 Build 0)  -->
<svg version="1.1" id="Layer_1" xmlns="http://www.w3.org/2000/svg" xmlns:xlink="http://www.w3.org/1999/xlink" x="0px" y="0px"
	 viewBox="0 0 154.4 210.4" style="enable-background:new 0 0 154.4 210.4;" xml:space="preserve">
<style type="text/css">
	.st0{fill:#FCFCFC;}
</style>
<g>
	<g>
		<g>
			<path class="st0" d="M77.2,0C38.5,0,7.1,31.4,7.1,70.1v70.2c0,38.7,31.5,70.1,70.1,70.1s70.1-31.4,70.1-70.1V70.1
				C147.3,31.4,115.9,0,77.2,0z M139.6,140.3c0,34.4-28,62.3-62.3,62.3s-62.3-27.9-62.3-62.3V70.1c0-34.4,28-62.3,62.3-62.3
				s62.3,28,62.3,62.3V140.3z"/>
			<path class="st0" d="M77.2,23.4c-2.2,0-3.9,1.7-3.9,3.9v35.3c0,2.2,1.7,3.9,3.9,3.9s3.9-1.7,3.9-3.9V27.3
				C81.1,25.1,79.4,23.4,77.2,23.4z"/>
		</g>
	</g>
</g>
</svg>
