<?xml version="1.0" encoding="UTF-8"?>
<svg width="82px" height="50px" viewBox="0 0 82 50" version="1.1" xmlns="http://www.w3.org/2000/svg" xmlns:xlink="http://www.w3.org/1999/xlink">
    <!-- Generator: sketchtool 55.2 (78181) - https://sketchapp.com -->
    <title>24CD3CCF-9E3B-4C24-94D1-2A8BF124E6C9</title>
    <desc>Created with sketchtool.</desc>
    <g id="Desktop" stroke="none" stroke-width="1" fill="none" fill-rule="evenodd">
        <g id="1024x768_Article_gui" transform="translate(-898.000000, -42.000000)">
            <g id="logo" transform="translate(898.000000, 42.000000)">
                <path d="M0,0.54334515 C0,0.25717048 0.229686564,0 0.546965462,0 L12.4536834,0 C12.7703134,0 13,0.25717048 13,0.54334515 L13,3.65775056 C13,3.9432807 12.7703134,4.20045118 12.4536834,4.20045118 L4.48732282,4.20045118 L4.48732282,8.31453432 L11.0437712,8.31453432 C11.3325015,8.31453432 11.5907367,8.5717048 11.5907367,8.8565904 L11.5907367,11.9709958 C11.5907367,12.2571705 11.3325015,12.5136964 11.0437712,12.5136964 L4.48732282,12.5136964 L4.48732282,19.4566549 C4.48732282,19.7428295 4.22843881,20 3.94100619,20 L0.546965462,20 C0.229686564,20 0,19.7428295 0,19.4566549 L0,0.54334515 Z" id="Fill-1" fill="#FFFFFF"></path>
                <path d="M51,0.54334515 C51,0.25717048 51.2855511,0 51.601799,0 L55.3989149,0 C55.7151628,0 56,0.25717048 56,0.54334515 L56,19.4566549 C56,19.7428295 55.7151628,20 55.3989149,20 L51.601799,20 C51.2855511,20 51,19.7428295 51,19.4566549 L51,0.54334515 Z" id="Fill-3" fill="#FFFFFF"></path>
                <path d="M69,0.54334515 C69,0.25717048 69.2314734,0 69.5505667,0 L72.999782,0 C73.2894507,0 73.5503487,0.25717048 73.5503487,0.54334515 L73.5503487,15.7995488 L80.4487794,15.7995488 C80.7678727,15.7995488 81,16.0573638 81,16.342894 L81,19.4566549 C81,19.7428295 80.7678727,20 80.4487794,20 L69.5505667,20 C69.2314734,20 69,19.7428295 69,19.4566549 L69,0.54334515 Z" id="Fill-5" fill="#FFFFFF"></path>
                <path d="M0,29.5427181 C0,29.2571788 0.229686564,29 0.546965462,29 L12.4536834,29 C12.7703134,29 13,29.2571788 13,29.5427181 L13,32.6572239 C13,32.9427632 12.7703134,33.199942 12.4536834,33.199942 L4.48732282,33.199942 L4.48732282,37.3141577 L11.0437712,37.3141577 C11.3325015,37.3141577 11.5907367,37.5713365 11.5907367,37.8568758 L11.5907367,40.9713816 C11.5907367,41.2569209 11.3325015,41.5140997 11.0437712,41.5140997 L4.48732282,41.5140997 L4.48732282,48.4572819 C4.48732282,48.7428212 4.22843881,49 3.94100619,49 L0.546965462,49 C0.229686564,49 0,48.7428212 0,48.4572819 L0,29.5427181 Z" id="Fill-7" fill="#FFFFFF"></path>
                <path d="M46.1481943,46.9376782 L47.5449756,44.5169043 C47.7830252,44.1378975 48.3483092,44.1958013 48.5561835,44.3418769 C48.6748731,44.4004387 50.815308,45.9460755 52.7767027,45.9460755 C53.9656097,45.9460755 54.8279529,45.2170139 54.8279529,44.1958013 C54.8279529,42.9712674 53.7879107,42.0375685 51.7661653,41.2499452 C49.2099818,40.2583425 46,38.304089 46,34.8041987 C46,31.9169043 48.2879586,29 52.8665581,29 C55.9578504,29 58.3356643,30.5456368 59.2268417,31.1871847 C59.5842514,31.391822 59.5245713,31.9169043 59.4052112,32.1208836 L57.8897404,34.3666301 C57.6818661,34.687733 57.1467574,34.9502742 56.879203,34.7462948 C56.6109781,34.6002193 54.4410384,32.9960207 52.6285085,32.9960207 C51.558291,32.9960207 50.7562985,33.6961303 50.7562985,34.4837537 C50.7562985,35.5628701 51.6481464,36.3794454 53.9951145,37.3131443 C56.313919,38.2172333 60,39.9964593 60,43.9628701 C60,46.9666301 57.3546317,50 52.9845771,50 C49.120797,50 46.9810327,48.4254112 46.2970591,47.7542535 C46,47.4627605 45.9108152,47.3462948 46.1481943,46.9376782" id="Fill-9" fill="#FFFFFF"></path>
                <g id="Group-13" transform="translate(67.000000, 29.000000)">
                    <polygon id="Clip-12" points="0.330136364 0.3465 14.8977273 0.3465 14.8977273 20.7092813 0.330136364 20.7092813"></polygon>
                    <path d="M5.22627273,4.622625 L0.904227273,4.622625 C0.572181818,4.622625 0.330136364,4.3614375 0.330136364,4.0700625 L0.330136364,0.8990625 C0.330136364,0.60834375 0.572181818,0.3465 0.904227273,0.3465 L14.3237727,0.3465 C14.6558182,0.3465 14.8978636,0.60834375 14.8978636,0.8990625 L14.8978636,4.0700625 C14.8978636,4.3614375 14.6558182,4.622625 14.3237727,4.622625 L10.0017273,4.622625 L10.0017273,20.1567188 C10.0017273,20.4474375 9.72968182,20.7092813 9.42763636,20.7092813 L5.80104545,20.7092813 C5.49831818,20.7092813 5.22627273,20.4474375 5.22627273,20.1567188 L5.22627273,4.622625 Z" id="Fill-11" fill="#FFFFFF"></path>
                </g>
                <path d="M38.9404758,20.2313167 L29.6527015,0.324955516 C29.5636663,0.148131673 29.3561407,0 29.1486151,0 L28.8513849,0 C28.6438593,0 28.4363337,0.148131673 28.3472985,0.324955516 L19.0595242,20.2313167 C18.8814538,20.6156584 19.1184347,21 19.5636105,21 L22.8284567,21 C23.4209088,21 23.7475942,20.6456851 23.8955399,20.2900356 L28.9698753,9.02135231 L29,9.02135231 L34.1037907,20.2606762 C34.3708962,20.8225089 34.6085465,21 35.1420881,21 L38.4363895,21 C38.8815653,21 39.1185462,20.6156584 38.9404758,20.2313167" id="Fill-14" fill="#FFFFFF"></path>
                <path d="M38.9404758,49.2313167 L29.6527015,29.3249555 C29.5636663,29.1481317 29.3561407,29 29.1486151,29 L28.8513849,29 C28.6438593,29 28.4363337,29.1481317 28.3472985,29.3249555 L19.0595242,49.2313167 C18.8814538,49.6156584 19.1184347,50 19.5636105,50 L22.8284567,50 C23.4209088,50 23.7475942,49.6450178 23.8955399,49.2900356 L28.9698753,38.0213523 L29,38.0213523 L34.1037907,49.2606762 C34.3708962,49.8225089 34.6085465,50 35.1420881,50 L38.4363895,50 C38.8815653,50 39.1185462,49.6156584 38.9404758,49.2313167" id="Fill-16" fill="#FFFFFF"></path>
            </g>
        </g>
    </g>
</svg>