<?xml version="1.0" encoding="UTF-8"?>
<svg width="113px" height="18px" viewBox="0 0 113 18" version="1.1" xmlns="http://www.w3.org/2000/svg" xmlns:xlink="http://www.w3.org/1999/xlink">
    <!-- Generator: sketchtool 51.3 (57544) - http://www.bohemiancoding.com/sketch -->
    <title>6A00D621-E812-4F6D-94B9-2A9BD328C804</title>
    <desc>Created with sketchtool.</desc>
    <defs>
        <polygon id="path-1" points="0 0.4143 10.886075 0.4143 10.886075 12.7738 0 12.7738"></polygon>
        <polygon id="path-3" points="0.248188607 0.41135 11.1465586 0.41135 11.1465586 15.5 0.248188607 15.5"></polygon>
        <polygon id="path-5" points="0.146954481 0.15245 10.7466785 0.15245 10.7466785 12.13445 0.146954481 12.13445"></polygon>
    </defs>
    <g id="Desktop" stroke="none" stroke-width="1" fill="none" fill-rule="evenodd">
        <g id="Menu-1920x1080" transform="translate(-1745.000000, -1012.000000)">
            <g id="opentrends" transform="translate(1744.940412, 1012.000000)">
                <g id="Group-3" transform="translate(0.000000, 2.336800)">
                    <mask id="mask-2" fill="white">
                        <use xlink:href="#path-1"></use>
                    </mask>
                    <g id="Clip-2"></g>
                    <path d="M6.93624086,3.6603 C6.56579421,3.3123 6.0723976,3.1273 5.42997073,3.1273 C4.78860837,3.1273 4.3196953,3.3123 3.9497809,3.6603 C3.28287049,4.2863 3.20888761,5.3298 3.20888761,6.5823 C3.20888761,7.8343 3.28287049,8.9003 3.9497809,9.5268 C4.3196953,9.8748 4.78860837,10.0598 5.42997073,10.0598 C6.0723976,10.0598 6.56579421,9.8748 6.93624086,9.5268 C7.60261902,8.9003 7.6766019,7.8343 7.6766019,6.5823 C7.6766019,5.3298 7.60261902,4.2863 6.93624086,3.6603 M9.4293042,11.2898 C8.63944382,12.0778 7.33063879,12.7738 5.42997073,12.7738 C3.52930267,12.7738 2.24551344,12.0778 1.45618531,11.2898 C0.296942792,10.1533 -5.32250927e-05,8.7848 -5.32250927e-05,6.5823 C-5.32250927e-05,4.4023 0.296942792,3.0343 1.45618531,1.8983 C2.24551344,1.1093 3.52930267,0.4143 5.42997073,0.4143 C7.33063879,0.4143 8.63944382,1.1093 9.4293042,1.8983 C10.589079,3.0343 10.886075,4.4023 10.886075,6.5823 C10.886075,8.7848 10.589079,10.1533 9.4293042,11.2898" id="Fill-1" fill="#FEFEFE" mask="url(#mask-2)"></path>
                </g>
                <path d="M32.745727,6.5069 C32.3997639,5.7884 31.6844187,5.2549 30.5980945,5.2549 C29.5123026,5.2549 28.7964251,5.7884 28.4509943,6.5069 C28.2529969,6.9479 28.1784818,7.2724 28.1545305,7.8059 L33.0416585,7.8059 C33.0166427,7.2724 32.9426599,6.9479 32.745727,6.5069 Z M28.1545305,9.8694 C28.1545305,11.4229 29.1668718,12.5589 30.9685412,12.5589 C32.3758126,12.5589 33.0672066,12.1879 33.8815505,11.4229 L35.8311856,13.2084 C34.5234451,14.4374 33.2636072,15.1104 30.9435254,15.1104 C27.9075661,15.1104 24.9956213,13.8114 24.9956213,8.9189 C24.9956213,4.9769 27.2656715,2.7509 30.5980945,2.7509 C34.1780143,2.7509 36.2021645,5.2089 36.2021645,8.5244 L36.2021645,9.8694 L28.1545305,9.8694 Z" id="Fill-4" fill="#FEFEFE"></path>
                <g id="Group-8" transform="translate(12.241771, 2.336800)">
                    <mask id="mask-4" fill="white">
                        <use xlink:href="#path-3"></use>
                    </mask>
                    <g id="Clip-7"></g>
                    <path d="M7.1929987,9.53485 C6.82201981,9.88285 6.32809095,10.06835 5.68513183,10.06835 C5.04270496,10.06835 4.57325964,9.88285 4.20281299,9.53485 C3.53430583,8.90735 3.4608552,7.83985 3.4608552,6.58635 C3.4608552,5.33285 3.53430583,4.28835 4.20281299,3.66135 C4.57325964,3.31335 5.04270496,3.12785 5.68513183,3.12785 C6.32809095,3.12785 6.82201981,3.31335 7.1929987,3.66135 C7.85990911,4.28835 7.93389199,5.33285 7.93389199,6.58635 C7.93389199,7.83985 7.85990911,8.90735 7.1929987,9.53485 M9.6887233,1.89735 C8.89779842,1.10785 7.58846114,0.41135 5.68513183,0.41135 C3.78286701,0.41135 2.49801328,1.10785 1.7060239,1.89735 C0.544652374,3.03485 0.248188607,4.40485 0.248188607,6.58635 L0.248188607,6.58885 L0.248188607,15.50035 L3.4608552,15.50035 L3.4608552,12.40885 C4.08199203,12.64035 4.82022407,12.78535 5.68513183,12.78535 C7.58846114,12.78535 8.89779842,12.08735 9.6887233,11.29885 C10.8500948,10.16135 11.1465586,8.79235 11.1465586,6.58635 C11.1465586,4.40485 10.8500948,3.03485 9.6887233,1.89735" id="Fill-6" fill="#FEFEFE" mask="url(#mask-4)"></path>
                </g>
                <path d="M48.7060162,14.92 L48.7060162,8.923 C48.7060162,6.742 48.4095524,5.3715 47.2471164,4.234 C46.4577883,3.4445 45.1468543,2.748 43.2445894,2.748 C41.3417924,2.748 40.0564064,3.4445 39.2654815,4.234 C38.1046422,5.3715 37.8076462,6.742 37.8076462,8.923 L37.8076462,8.926 L37.8076462,10.7035 L37.8076462,14.92 L41.0208451,14.92 L41.0208451,8.923 C41.0208451,7.6695 41.0942957,6.625 41.7612061,5.998 C42.1316528,5.65 42.6026948,5.4645 43.2445894,5.4645 C43.8875486,5.4645 44.3798807,5.65 44.7508596,5.998 C45.4193667,6.625 45.4928174,7.6695 45.4928174,8.923 L45.4928174,14.92 L48.7060162,14.92 Z" id="Fill-9" fill="#FEFEFE"></path>
                <path d="M54.7252419,14.8365 C52.188534,14.8365 51.1112581,13.15 51.1112581,11.4875 L51.1112581,5.687 L49.7955339,5.687 L49.7955339,3.4615 L51.1112581,3.4615 L51.1112581,0 L54.2217326,0 L54.2217326,3.4615 L56.4236546,3.4615 L56.4236546,5.687 L54.2217326,5.687 L54.2217326,11.306 C54.2217326,11.9815 54.5570506,12.3635 55.2984762,12.3635 L56.4236546,12.3635 L56.4236546,14.8365 L54.7252419,14.8365 Z" id="Fill-11" fill="#FEFEFE"></path>
                <path d="M73.0192918,6.6309 C72.6850382,5.9344 71.990983,5.4174 70.9376584,5.4174 C69.8848661,5.4174 69.1918754,5.9344 68.856025,6.6309 C68.6644147,7.0579 68.5930931,7.3734 68.5691418,7.8904 L73.3072395,7.8904 C73.282756,7.3734 73.2109021,7.0579 73.0192918,6.6309 Z M68.5691418,9.8909 C68.5691418,11.3964 69.5500802,12.4979 71.29746,12.4979 C72.6610869,12.4979 73.3306586,12.1384 74.1199867,11.3964 L76.0110742,13.1274 C74.7427203,14.3194 73.5206721,14.9714 71.2729765,14.9714 C68.3290966,14.9714 65.5060377,13.7119 65.5060377,8.9699 C65.5060377,5.1474 67.7079598,2.9894 70.9376584,2.9894 C74.4074022,2.9894 76.3698114,5.3724 76.3698114,8.5864 L76.3698114,9.8909 L68.5691418,9.8909 Z" id="Fill-13" fill="#FEFEFE"></path>
                <path d="M88.8724921,14.92 L88.8724921,8.923 C88.8724921,6.742 88.5754961,5.3715 87.4141245,4.234 C86.6231997,3.4445 85.3138624,2.748 83.4110653,2.748 C81.507736,2.748 80.2234145,3.4445 79.4324896,4.234 C78.2711181,5.3715 77.9746544,6.742 77.9746544,8.923 L77.9746544,8.926 L77.9746544,10.7035 L77.9746544,14.92 L81.187321,14.92 L81.187321,8.923 C81.187321,7.6695 81.2607716,6.625 81.9282142,5.998 C82.2991931,5.65 82.7686385,5.4645 83.4110653,5.4645 C84.0529599,5.4645 84.5474211,5.65 84.9189322,5.998 C85.5858426,6.625 85.6603577,7.6695 85.6603577,8.923 L85.6603577,14.92 L88.8724921,14.92 Z" id="Fill-15" fill="#FEFEFE"></path>
                <g id="Group-19" transform="translate(102.192178, 2.836800)">
                    <mask id="mask-6" fill="white">
                        <use xlink:href="#path-5"></use>
                    </mask>
                    <g id="Clip-18"></g>
                    <path d="M5.45828648,12.13445 C3.49694182,12.13445 1.72561073,11.93245 0.146954481,10.44845 L2.18015302,8.53795 C3.21005857,9.50395 4.5492019,9.63845 5.50672132,9.63845 C6.58293269,9.63845 7.70811115,9.30145 7.70811115,8.42445 C7.70811115,7.84095 7.37332532,7.43645 6.39079011,7.34595 L4.42944544,7.16645 C2.18015302,6.96395 0.792574855,6.04245 0.792574855,3.88495 C0.792574855,1.45695 3.06528631,0.15245 5.60252648,0.15245 C7.53991986,0.15245 9.16701094,0.46695 10.3640433,1.52395 L8.44953669,3.34495 C7.73153019,2.73795 6.63030302,2.55845 5.55409165,2.55845 C4.31022123,2.55845 3.78382507,3.09795 3.78382507,3.68195 C3.78382507,4.10895 3.97490315,4.60345 5.07506581,4.69395 L7.03853948,4.87345 C9.50232903,5.09795 10.7467317,6.33445 10.7467317,8.31245 C10.7467317,10.89745 8.40163411,12.13445 5.45828648,12.13445" id="Fill-17" fill="#FEFEFE" mask="url(#mask-6)"></path>
                </g>
                <path d="M94.435632,5.8477 C94.8060786,5.4997 95.3000075,5.3137 95.9429666,5.3137 C96.5848612,5.3142 97.0543066,5.4997 97.4252855,5.8477 C98.0921959,6.4742 98.166711,7.5422 98.166711,8.7957 C98.166711,10.0492 98.0921959,11.0937 97.4252855,11.7207 C97.0543066,12.0692 96.5848612,12.2547 95.9429666,12.2547 C95.3000075,12.2547 94.8060786,12.0692 94.435632,11.7207 C93.7681893,11.0937 93.6942065,10.0492 93.6942065,8.7957 C93.6942065,7.5422 93.7681893,6.4742 94.435632,5.8477 M91.9393752,13.4847 C92.7292355,14.2747 94.0396373,14.9712 95.9429666,14.9712 C97.8452314,14.9712 99.1295529,14.2747 99.9215423,13.4847 C101.081849,12.3477 101.378845,10.9782 101.378845,8.7957 L101.378845,8.7937 L101.378845,0.0002 L98.166711,0.0002 L98.166711,2.9732 C97.5455742,2.7417 96.8078744,2.5972 95.9429666,2.5972 C94.0396373,2.5972 92.7292355,3.2947 91.9393752,4.0837 C90.7780036,5.2207 90.4810076,6.5907 90.4810076,8.7957 C90.4810076,10.9782 90.7780036,12.3477 91.9393752,13.4847" id="Fill-20" fill="#FEFEFE"></path>
                <path d="M63.472573,2.7481 C61.5692437,2.7481 60.28439,3.4446 59.4939973,4.2341 C58.3331581,5.3716 58.0361621,6.7416 58.0361621,8.9231 L58.0361621,8.9256 L58.0361621,10.7036 L58.0361621,14.9201 L61.2482964,14.9201 L61.2482964,8.9231 C61.2482964,7.6696 61.3222793,6.6251 61.9891897,5.9981 C62.3601686,5.6501 62.8301462,5.4646 63.472573,5.4646 L65.0645355,5.4646 L65.0645355,2.7481 L63.472573,2.7481 Z" id="Fill-22" fill="#FEFEFE"></path>
            </g>
        </g>
    </g>
</svg>